<svg id="Capa_1" enable-background="new 0 0 512 512" height="512" viewBox="0 0 512 512" width="512" xmlns="http://www.w3.org/2000/svg"><g><g><path d="m470.651 71.988h-429.302c-18.427 0-33.364 14.938-33.364 33.364v301.294c0 18.427 14.938 33.364 33.364 33.364h429.302c18.427 0 33.364-14.938 33.364-33.364v-301.293c.001-18.427-14.937-33.365-33.364-33.365z" fill="#bef2f5"/></g><g><path d="m470.651 71.988h-429.302c0 13.255 10.747 24.002 24.002 24.002h405.3c5.164 0 9.364 4.2 9.364 9.364v238.652c0 13.255 10.747 24.001 24.001 24.001v-262.654c0-18.427-14.938-33.365-33.365-33.365z" fill="#fff"/></g><path d="m470.651 64.004h-429.302c-22.8 0-41.349 18.549-41.349 41.349v301.294c0 22.8 18.549 41.349 41.349 41.349h429.302c22.8 0 41.349-18.549 41.349-41.349v-301.294c0-22.8-18.549-41.349-41.349-41.349zm-115.827 191.619 141.207-140.432v280.864zm-313.475-175.65h429.302c10.274 0 19.135 6.14 23.124 14.94l-175.706 174.741c-34.225 34.037-89.913 34.037-124.138 0l-175.706-174.741c3.989-8.8 12.85-14.94 23.124-14.94zm-25.38 35.217 141.208 140.432-141.208 140.433zm454.682 316.837h-429.302c-10.477 0-19.49-6.381-23.36-15.461l150.51-149.683 14.172 14.094c20.217 20.106 46.773 30.159 73.329 30.159s53.113-10.053 73.329-30.159l14.172-14.094 150.51 149.683c-3.87 9.08-12.883 15.461-23.36 15.461z" fill="#00abd5"/><g><path d="m255.998 311.233c-.001 0 0 0 0 0-27.668 0-53.709-10.746-73.327-30.256l-51.586-51.303c-3.127-3.109-3.141-8.165-.031-11.292 3.11-3.126 8.166-3.14 11.291-.031l51.586 51.303c16.606 16.514 38.648 25.609 62.067 25.61 4.41 0 7.984 3.575 7.984 7.984 0 4.41-3.575 7.985-7.984 7.985z" fill="#283246"/></g><g><path d="m360.006 447.996h-318.657c-22.8 0-41.349-18.549-41.349-41.349v-174.649c0-4.41 3.575-7.984 7.984-7.984s7.984 3.575 7.984 7.984v174.649c0 13.995 11.385 25.38 25.38 25.38h318.657c4.41 0 7.984 3.575 7.984 7.984.002 4.41-3.573 7.985-7.983 7.985z" fill="#283246"/></g></g></svg>